<?xml version="1.0" encoding="utf-8"?>
<!-- Svg Vector Icons : http://www.onlinewebfonts.com/icon -->
<!DOCTYPE svg PUBLIC "-//W3C//DTD SVG 1.1//EN" "http://www.w3.org/Graphics/SVG/1.1/DTD/svg11.dtd">
<svg version="1.1" xmlns="http://www.w3.org/2000/svg" xmlns:xlink="http://www.w3.org/1999/xlink" x="0px" y="0px" viewBox="0 0 256 256" enable-background="new 0 0 256 256" xml:space="preserve">
<metadata> Svg Vector Icons : http://www.onlinewebfonts.com/icon </metadata>
<g><g><path fill="#000000" d="M246,173.1v6.9h-85.6v-13.9h71.5c-1.5-23.5-11-44.9-25.6-61.6l-11.2,11.2l-9.8-9.8l11.1-11.1c-16.7-14.6-38-24-61.5-25.5v41.3h-13.9V69.3c-23.5,1.6-44.8,10.9-61.5,25.5l11.1,11.1l-9.8,9.8l-11.1-11.1c-14.6,16.7-24,38.1-25.6,61.6h71.8V180H10v-6.9c0-65.1,52.9-118,118-118C193.1,55.1,246,108.1,246,173.1L246,173.1z M155.8,173.1c0,15.3-12.4,27.8-27.8,27.8c-15.3,0-27.8-12.5-27.8-27.8c0-8.9,4.3-16.8,10.9-21.9l-28.9-50.4l12-6.9l29.7,51.8c1.3-0.2,2.6-0.4,4-0.4C143.3,145.4,155.8,157.8,155.8,173.1L155.8,173.1z M141.9,173.1c0-7.7-6.2-13.9-13.9-13.9c-7.7,0-13.9,6.2-13.9,13.9c0,7.7,6.2,13.9,13.9,13.9C135.7,187,141.9,180.8,141.9,173.1z"/></g></g>
</svg>